# xmcd CD database file
#
# Track frame offsets:
#	150
#	15310
#	35472
#	55025
#	73229
#	92293
#	106594
#	135182
#	163088
#	185756
#	199550
#	217358
#
# Disc length: 2996 seconds
#
# Revision: 0
# Processed by: cddbd v1.5PL3 Copyright (c) Steve Scherf et al.
# Submitted via: CDex 1.50
#
DISCID=9b0bb20c
DTITLE=Alan Farrington - Blues and Soul
DYEAR=2002
DGENRE=Jazz
TTITLE0=Shame
TTITLE1=Good Bye
TTITLE2=The Speech
TTITLE3=Route 66
TTITLE4=Self Confidence
TTITLE5=Matilda's Rumba
TTITLE6=Have Mercy
TTITLE7=Mustang Sally
TTITLE8=Love Hangover
TTITLE9=Stuck On You
TTITLE10=A.F. Blues
TTITLE11=Pasta Fiesta
EXTD=YEAR: 2002
EXTT0=
EXTT1=
EXTT2=
EXTT3=
EXTT4=
EXTT5=
EXTT6=
EXTT7=
EXTT8=
EXTT9=
EXTT10=
EXTT11=
PLAYORDER=
